# xmcd CD database file
#
# Track frame offsets:
#	150
#	13374
#	33837
#	49208
#	62274
#	74583
#	92731
#	97717
#	122908
#	133876
#
# Disc length: 2007 seconds
#
# Revision: 0
# Processed by: cddbd v1.5.2PL0 Copyright (c) Steve Scherf et al.
# Submitted via: CDex 1.70beta2
#
DISCID=8707d50a
DTITLE=Mississippi John Hurt - Vanguard  Visionaries - Mississippi John Hurt
DYEAR=2007
DGENRE=Blues
TTITLE0=Candy man
TTITLE1=Make me A Pallet On Your Floor
TTITLE2=Spike Driver Blues
TTITLE3=I'm Satisfied
TTITLE4=Since I've Laid My Burden Down
TTITLE5=Richland Woman Blues
TTITLE6=The Chicken
TTITLE7=Stagolee
TTITLE8=Goodnight Irene
TTITLE9=Farther Along
EXTD=YEAR: 2007
EXTT0=
EXTT1=
EXTT2=
EXTT3=
EXTT4=
EXTT5=
EXTT6=
EXTT7=
EXTT8=
EXTT9=
PLAYORDER=
